<svg version="1.0" xmlns="http://www.w3.org/2000/svg"
 width="512px" height="512px" viewBox="0 0 1280.000000 1280.000000"
 preserveAspectRatio="xMidYMid meet">
<g transform="translate(0.000000,1280.000000) scale(0.100000,-0.100000)"
fill="#20c984" stroke="none">
<path d="M11875 11754 c-71 -36 -177 -90 -235 -121 -58 -31 -143 -76 -190
-101 -186 -99 -425 -235 -567 -323 -400 -248 -603 -366 -678 -394 -53 -20
-440 -233 -685 -377 -323 -189 -731 -395 -885 -446 -55 -19 -167 -67 -248
-108 -82 -41 -187 -91 -235 -110 -48 -20 -166 -72 -262 -116 -96 -44 -211 -96
-255 -116 -44 -20 -201 -96 -349 -170 -245 -121 -373 -192 -656 -362 -52 -31
-147 -85 -210 -120 -395 -217 -584 -356 -951 -701 l-124 -116 -110 -7 c-125
-9 -195 -23 -294 -61 -87 -33 -147 -85 -205 -178 -54 -86 -61 -105 -95 -225
-25 -92 -27 -94 -64 -107 -20 -7 -40 -9 -43 -4 -9 15 -174 150 -224 184 l-49
33 92 21 c111 26 237 76 303 122 108 73 217 206 252 308 34 98 0 169 -91 196
-144 41 -351 37 -578 -11 -68 -14 -126 -27 -128 -30 -2 -2 -58 50 -125 115
-185 182 -332 294 -463 357 -141 66 -377 55 -633 -32 -293 -100 -619 -361
-733 -589 -80 -162 -107 -278 -114 -500 -4 -155 -2 -193 15 -276 30 -147 76
-233 156 -291 l41 -29 1 -157 c1 -115 5 -170 17 -207 9 -27 15 -50 14 -51 -1
-1 -28 13 -59 33 -31 19 -62 32 -68 28 -18 -11 -47 -87 -70 -182 -16 -64 -23
-134 -27 -261 l-6 -172 -33 -45 c-19 -25 -49 -64 -66 -88 -18 -24 -104 -118
-190 -208 -290 -303 -332 -371 -378 -619 -19 -96 -20 -132 -14 -430 11 -623
51 -873 194 -1206 38 -88 74 -181 79 -205 6 -25 15 -149 21 -275 17 -373 38
-508 121 -800 29 -98 62 -224 74 -279 12 -55 52 -181 88 -280 l65 -180 1725
-3 1725 -2 4 42 c11 98 8 321 -6 428 -27 215 -59 303 -200 555 l-66 119 10 99
c13 128 13 369 0 438 -6 33 -52 136 -118 268 -86 173 -107 223 -106 255 0 23
6 113 12 201 7 88 12 210 12 271 0 93 3 113 18 126 71 61 476 220 1207 473
250 86 395 153 524 240 112 75 254 195 331 280 33 36 62 59 72 58 21 -3 110
82 154 147 104 152 163 268 164 321 0 48 -28 72 -124 109 -124 48 -119 44 -97
88 10 20 37 96 60 169 68 214 80 326 97 878 15 508 27 740 43 895 6 52 11 139
11 192 0 53 3 104 6 113 4 9 54 40 113 70 296 148 428 279 439 437 2 37 9 68
14 68 4 0 13 11 18 24 13 36 102 98 370 259 96 57 197 125 224 150 46 43 48
48 43 84 l-6 38 96 70 c186 134 277 229 271 281 -3 21 72 66 747 446 430 243
867 482 1025 560 151 75 361 187 465 248 222 131 437 247 587 318 134 63 289
150 305 171 28 37 -2 172 -42 187 -8 3 -15 17 -15 31 0 58 -63 134 -110 132
-8 0 -73 -29 -145 -65z m-4973 -3296 c-10 -38 -17 -140 -22 -363 -8 -309 -8
-311 -44 -460 -67 -281 -122 -435 -254 -715 l-87 -185 -110 -72 c-130 -86
-186 -136 -215 -193 -12 -23 -75 -95 -139 -160 -150 -150 -128 -145 -444 -99
-62 8 -91 17 -97 29 -5 9 -31 108 -59 221 -27 112 -62 236 -76 274 -14 39 -32
101 -40 139 l-13 69 31 29 c18 16 70 52 117 80 102 62 200 130 222 155 8 10
26 49 38 87 21 63 22 80 17 233 -6 156 -5 164 11 150 10 -9 44 -28 76 -43 51
-23 67 -26 135 -22 139 9 252 68 320 168 62 91 50 195 -30 264 l-40 34 58 32
c32 18 117 70 188 115 220 140 458 283 471 285 1 0 -6 -24 -14 -52z m-714
-438 c75 -46 94 -137 43 -206 -44 -60 -81 -90 -143 -119 -68 -31 -177 -43
-231 -26 -39 13 -117 66 -117 80 0 5 42 12 93 16 50 3 114 11 142 17 92 20
142 100 118 190 -10 36 -9 40 16 53 34 19 40 18 79 -5z m-1553 -1673 c-9 -67
-19 -125 -23 -129 -4 -4 -66 -11 -137 -14 l-129 -7 24 30 c14 17 52 64 85 104
33 41 89 115 125 166 l65 92 3 -60 c2 -33 -4 -114 -13 -182z"/>
</g>
</svg>
